# xmcd
#
# Track frame offsets:
# 150
# 23252
# 40075
# 68727
# 81453
# 97190
# 113786
# 124079
# 142716
# 163340
# 183498
# 204663
# 215363
# 236417
#
# Disc length: 3390 seconds
#
#
# Revision: 0
# Processed by: cddbd v1.5.2PL0 Copyright (c) Steve Scherf et al.
# Submitted via: FreeRIP 2.945 
#
DISCID=bd0d3c0e
DTITLE=Varios - Grandes Compositores - Caetano e Gil
DYEAR=1900
DGENRE=Pop
TTITLE0=Sampa - Pery Ribeiro
TTITLE1=Esse Cara - Virginia Rosa
TTITLE2=Se eu quiser falar com Deus - Claudya
TTITLE3=Qualquer coisa - Jane Duboc
TTITLE4=Luz do sol - Tom da Terra
TTITLE5=Domingo no Parque - Claudya e Zimbro trio
TTITLE6=Drama - Virginia Rosa
TTITLE7=Preciso aprender a só ser - Pery Ribeiro
TTITLE8=Louvação - Claudya
TTITLE9=Toda menina baiana - Virginia Rosa
TTITLE10=Menino do Rio - Claudya
TTITLE11=Toda Saudade - Ana de Hollanda
TTITLE12=Desde que o samba e' samba - Claudette Soares
TTITLE13=Leaozinho - Claudya
EXTD=
EXTT0=
EXTT1=
EXTT2=
EXTT3=
EXTT4=
EXTT5=
EXTT6=
EXTT7=
EXTT8=
EXTT9=
EXTT10=
EXTT11=
EXTT12=
EXTT13=
PLAYORDER=
